<svg width="21" height="21" viewBox="0 0 21 21" fill="none" xmlns="http://www.w3.org/2000/svg">
<path d="M19.9344 8.63978H19.1409V8.5989H10.2756V12.539H15.8426C15.0304 14.8327 12.8481 16.4792 10.2756 16.4792C7.01172 16.4792 4.36543 13.8329 4.36543 10.569C4.36543 7.30506 7.01172 4.65876 10.2756 4.65876C11.7822 4.65876 13.1529 5.22713 14.1966 6.15552L16.9827 3.36935C15.2235 1.72977 12.8702 0.718628 10.2756 0.718628C4.83578 0.718628 0.425293 5.12912 0.425293 10.569C0.425293 16.0088 4.83578 20.4193 10.2756 20.4193C15.7155 20.4193 20.126 16.0088 20.126 10.569C20.126 9.9085 20.058 9.2638 19.9344 8.63978Z" fill="#FFC107"/>
<path d="M1.56079 5.98411L4.79712 8.35754C5.67282 6.18949 7.79359 4.65875 10.2754 4.65875C11.782 4.65875 13.1527 5.22712 14.1963 6.15551L16.9825 3.36935C15.2232 1.72976 12.87 0.718628 10.2754 0.718628C6.49187 0.718628 3.21072 2.85467 1.56079 5.98411Z" fill="#FF3D00"/>
<path d="M10.2756 20.4193C12.8199 20.4193 15.1318 19.4456 16.8798 17.8621L13.8311 15.2823C12.8089 16.0597 11.5598 16.4802 10.2756 16.4791C7.71353 16.4791 5.53809 14.8455 4.71854 12.5656L1.50635 15.0405C3.13658 18.2305 6.44727 20.4193 10.2756 20.4193Z" fill="#4CAF50"/>
<path d="M19.9341 8.63976H19.1407V8.59888H10.2754V12.539H15.8423C15.4538 13.6306 14.754 14.5845 13.8294 15.2828L13.8309 15.2818L16.8796 17.8616C16.6638 18.0577 20.1257 15.4941 20.1257 10.5689C20.1257 9.90848 20.0578 9.26377 19.9341 8.63976Z" fill="#1976D2"/>
</svg>
